<svg xmlns="http://www.w3.org/2000/svg" viewBox="0 0 22 22">
    <g fill="none" fill-rule="evenodd" transform="translate(-1 -1)">
        <path d="M0 0h24v24H0z"/>
        <path fill="#CF0000" fill-rule="nonzero" d="M12 3c-4.967 0-9 4.033-9 9s4.033 9 9 9 9-4.033 9-9-4.033-9-9-9zm0-2c6.072 0 11 4.928 11 11s-4.928 11-11 11S1 18.072 1 12 5.928 1 12 1z"/>
        <path fill="#CF0000" fill-rule="nonzero" d="M12.5 13h-1a.5.5 0 0 1-.5-.5V7.7a.5.5 0 0 1 .5-.5h1a.5.5 0 0 1 .5.5v4.8a.5.5 0 0 1-.5.5z"/>
        <circle cx="12" cy="15.5" r="1.5" fill="#CF0000" fill-rule="nonzero"/>
    </g>
</svg>
